{
	"asset":{
		"generator":"Khronos glTF Blender I/O v4.0.44",
		"version":"2.0"
	},
	"scene":0,
	"scenes":[
		{
			"name":"Scene",
			"nodes":[
				0,
				1,
				2,
				3,
				4,
				5,
				6,
				7
			]
		}
	],
	"nodes":[
		{
			"mesh":0,
			"name":"escenario",
			"scale":[
				3.430666446685791,
				2.530446767807007,
				3.590365171432495
			]
		},
		{
			"mesh":1,
			"name":"pelota",
			"scale":[
				0.07018835842609406,
				0.07018835842609406,
				0.07018835842609406
			],
			"translation":[
				0,
				0.05901689827442169,
				0
			]
		},
		{
			"mesh":2,
			"name":"Text",
			"scale":[
				0.29847124218940735,
				0.29847124218940735,
				0.29847124218940735
			],
			"translation":[
				-0.6275914907455444,
				1.3407591581344604,
				3.3377676010131836
			]
		},
		{
			"mesh":3,
			"name":"Cylinder",
			"scale":[
				0.02264990471303463,
				0.2488057166337967,
				0.02264990471303463
			],
			"translation":[
				-2.095085620880127,
				1.5428357124328613,
				-3.3528358936309814
			]
		},
		{
			"mesh":4,
			"name":"banderin",
			"rotation":[
				0.7071068286895752,
				0,
				0,
				0.7071068286895752
			],
			"scale":[
				0.12615539133548737,
				0.12615539133548737,
				0.12615539133548737
			],
			"translation":[
				-1.9538393020629883,
				1.6544899940490723,
				-3.3450682163238525
			]
		},
		{
			"mesh":3,
			"name":"Cylinder.001",
			"scale":[
				0.02264990471303463,
				0.2488057166337967,
				0.02264990471303463
			],
			"translation":[
				2.061061382293701,
				1.5428357124328613,
				-3.3528358936309814
			]
		},
		{
			"mesh":4,
			"name":"banderin.001",
			"rotation":[
				0.7071068286895752,
				0,
				0,
				0.7071068286895752
			],
			"scale":[
				0.12615539133548737,
				0.12615539133548737,
				0.12615539133548737
			],
			"translation":[
				2.20230770111084,
				1.6544899940490723,
				-3.3450682163238525
			]
		},
		{
			"mesh":5,
			"name":"Text.001",
			"scale":[
				0.17531749606132507,
				0.17531749606132507,
				0.17531749606132507
			],
			"translation":[
				-0.293660968542099,
				1.3407591581344604,
				3.513709545135498
			]
		}
	],
	"animations":[
		{
			"channels":[
				{
					"sampler":0,
					"target":{
						"node":4,
						"path":"weights"
					}
				},
				{
					"sampler":1,
					"target":{
						"node":6,
						"path":"weights"
					}
				}
			],
			"name":"banderinflameo",
			"samplers":[
				{
					"input":38,
					"interpolation":"LINEAR",
					"output":39
				},
				{
					"input":38,
					"interpolation":"LINEAR",
					"output":40
				}
			]
		}
	],
	"materials":[
		{
			"doubleSided":true,
			"name":"Material",
			"pbrMetallicRoughness":{
				"baseColorFactor":[
					1,
					0.7924169301986694,
					0.013653152622282505,
					1
				],
				"metallicFactor":0,
				"roughnessFactor":0
			}
		},
		{
			"doubleSided":true,
			"name":"Material.002",
			"pbrMetallicRoughness":{
				"baseColorFactor":[
					0.17379242181777954,
					0.4896452724933624,
					0.03654208034276962,
					1
				],
				"metallicFactor":0,
				"roughnessFactor":0.5
			}
		},
		{
			"doubleSided":true,
			"name":"Material.003",
			"pbrMetallicRoughness":{
				"baseColorFactor":[
					0.4307743310928345,
					0.4307743310928345,
					0.4307743310928345,
					1
				],
				"metallicFactor":0,
				"roughnessFactor":0.5
			}
		},
		{
			"doubleSided":true,
			"name":"Material.004",
			"pbrMetallicRoughness":{
				"baseColorFactor":[
					0.37046360969543457,
					0.37046360969543457,
					0.37046360969543457,
					1
				],
				"metallicFactor":0,
				"roughnessFactor":0.5
			}
		},
		{
			"doubleSided":true,
			"name":"Material.001",
			"pbrMetallicRoughness":{
				"baseColorFactor":[
					0.4775494337081909,
					0.05888611450791359,
					0,
					1
				],
				"metallicFactor":0
			}
		}
	],
	"meshes":[
		{
			"name":"Plane",
			"primitives":[
				{
					"attributes":{
						"POSITION":0,
						"NORMAL":1,
						"TEXCOORD_0":2
					},
					"indices":3,
					"material":0
				},
				{
					"attributes":{
						"POSITION":4,
						"NORMAL":5,
						"TEXCOORD_0":6
					},
					"indices":7,
					"material":1
				},
				{
					"attributes":{
						"POSITION":8,
						"NORMAL":9,
						"TEXCOORD_0":10
					},
					"indices":11,
					"material":2
				},
				{
					"attributes":{
						"POSITION":12,
						"NORMAL":13,
						"TEXCOORD_0":14
					},
					"indices":15,
					"material":3
				}
			]
		},
		{
			"name":"Sphere",
			"primitives":[
				{
					"attributes":{
						"POSITION":16,
						"NORMAL":17,
						"TEXCOORD_0":18
					},
					"indices":19,
					"material":4
				}
			]
		},
		{
			"name":"Text",
			"primitives":[
				{
					"attributes":{
						"POSITION":20,
						"NORMAL":21,
						"TEXCOORD_0":22
					},
					"indices":23,
					"material":4
				}
			]
		},
		{
			"name":"Cylinder",
			"primitives":[
				{
					"attributes":{
						"POSITION":24,
						"NORMAL":25,
						"TEXCOORD_0":26
					},
					"indices":27
				}
			]
		},
		{
			"extras":{
				"targetNames":[
					"banderinflameo"
				]
			},
			"name":"Plane.001",
			"primitives":[
				{
					"attributes":{
						"POSITION":28,
						"NORMAL":29,
						"TEXCOORD_0":30
					},
					"indices":31,
					"material":4,
					"targets":[
						{
							"POSITION":32,
							"NORMAL":33
						}
					]
				}
			],
			"weights":[
				0
			]
		},
		{
			"name":"Text.001",
			"primitives":[
				{
					"attributes":{
						"POSITION":34,
						"NORMAL":35,
						"TEXCOORD_0":36
					},
					"indices":37,
					"material":4
				}
			]
		}
	],
	"accessors":[
		{
			"bufferView":0,
			"componentType":5126,
			"count":268,
			"max":[
				0.674421489238739,
				0.5266461968421936,
				1
			],
			"min":[
				-0.674421489238739,
				0,
				-1
			],
			"type":"VEC3"
		},
		{
			"bufferView":1,
			"componentType":5126,
			"count":268,
			"type":"VEC3"
		},
		{
			"bufferView":2,
			"componentType":5126,
			"count":268,
			"type":"VEC2"
		},
		{
			"bufferView":3,
			"componentType":5123,
			"count":912,
			"type":"SCALAR"
		},
		{
			"bufferView":4,
			"componentType":5126,
			"count":4,
			"max":[
				0.4404444396495819,
				0,
				0.6574968099594116
			],
			"min":[
				-0.4404444396495819,
				0,
				-0.6574968099594116
			],
			"type":"VEC3"
		},
		{
			"bufferView":5,
			"componentType":5126,
			"count":4,
			"type":"VEC3"
		},
		{
			"bufferView":6,
			"componentType":5126,
			"count":4,
			"type":"VEC2"
		},
		{
			"bufferView":7,
			"componentType":5123,
			"count":6,
			"type":"SCALAR"
		},
		{
			"bufferView":8,
			"componentType":5126,
			"count":144,
			"max":[
				0.5717244148254395,
				0.5178597569465637,
				0.8477256298065186
			],
			"min":[
				-0.5717244148254395,
				-0.010028243064880371,
				-0.8477256298065186
			],
			"type":"VEC3"
		},
		{
			"bufferView":9,
			"componentType":5126,
			"count":144,
			"type":"VEC3"
		},
		{
			"bufferView":10,
			"componentType":5126,
			"count":144,
			"type":"VEC2"
		},
		{
			"bufferView":11,
			"componentType":5123,
			"count":396,
			"type":"SCALAR"
		},
		{
			"bufferView":12,
			"componentType":5126,
			"count":80,
			"max":[
				0.5477167367935181,
				0.41604509949684143,
				0.8121282458305359
			],
			"min":[
				-0.5477167367935181,
				0.11060110479593277,
				-0.8121282458305359
			],
			"type":"VEC3"
		},
		{
			"bufferView":13,
			"componentType":5126,
			"count":80,
			"type":"VEC3"
		},
		{
			"bufferView":14,
			"componentType":5126,
			"count":80,
			"type":"VEC2"
		},
		{
			"bufferView":15,
			"componentType":5123,
			"count":240,
			"type":"SCALAR"
		},
		{
			"bufferView":16,
			"componentType":5126,
			"count":557,
			"max":[
				0.9498969316482544,
				0.9830834865570068,
				0.9498969316482544
			],
			"min":[
				-0.9498968124389648,
				-0.9830834865570068,
				-0.9498969316482544
			],
			"type":"VEC3"
		},
		{
			"bufferView":17,
			"componentType":5126,
			"count":557,
			"type":"VEC3"
		},
		{
			"bufferView":18,
			"componentType":5126,
			"count":557,
			"type":"VEC2"
		},
		{
			"bufferView":19,
			"componentType":5123,
			"count":2880,
			"type":"SCALAR"
		},
		{
			"bufferView":20,
			"componentType":5126,
			"count":6314,
			"max":[
				4.728857517242432,
				0.03999999910593033,
				0.02903420478105545
			],
			"min":[
				-0.04122850298881531,
				-0.03999999910593033,
				-0.7020000219345093
			],
			"type":"VEC3"
		},
		{
			"bufferView":21,
			"componentType":5126,
			"count":6314,
			"type":"VEC3"
		},
		{
			"bufferView":22,
			"componentType":5126,
			"count":6314,
			"type":"VEC2"
		},
		{
			"bufferView":23,
			"componentType":5123,
			"count":31560,
			"type":"SCALAR"
		},
		{
			"bufferView":24,
			"componentType":5126,
			"count":494,
			"max":[
				1.7102760076522827,
				1.1806100606918335,
				1.7102900743484497
			],
			"min":[
				-1.7102714776992798,
				-1,
				-1.7102574110031128
			],
			"type":"VEC3"
		},
		{
			"bufferView":25,
			"componentType":5126,
			"count":494,
			"type":"VEC3"
		},
		{
			"bufferView":26,
			"componentType":5126,
			"count":494,
			"type":"VEC2"
		},
		{
			"bufferView":27,
			"componentType":5123,
			"count":2676,
			"type":"SCALAR"
		},
		{
			"bufferView":28,
			"componentType":5126,
			"count":30,
			"max":[
				1.870303750038147,
				0.7329636216163635,
				1.1036041975021362
			],
			"min":[
				-1,
				-0.2993299067020416,
				-1.1107310056686401
			],
			"type":"VEC3"
		},
		{
			"bufferView":29,
			"componentType":5126,
			"count":30,
			"type":"VEC3"
		},
		{
			"bufferView":30,
			"componentType":5126,
			"count":30,
			"type":"VEC2"
		},
		{
			"bufferView":31,
			"componentType":5123,
			"count":120,
			"type":"SCALAR"
		},
		{
			"bufferView":32,
			"componentType":5126,
			"count":30,
			"max":[
				0.025310486555099487,
				0.3896150588989258,
				0.18972039222717285
			],
			"min":[
				-0.04738897085189819,
				-0.32706284523010254,
				-0.10492046177387238
			],
			"type":"VEC3"
		},
		{
			"bufferView":33,
			"componentType":5126,
			"count":30,
			"type":"VEC3"
		},
		{
			"bufferView":34,
			"componentType":5126,
			"count":4203,
			"max":[
				4.165999889373779,
				0.03999999910593033,
				0.02902207151055336
			],
			"min":[
				0.019916387274861336,
				-0.03999999910593033,
				-0.7110123634338379
			],
			"type":"VEC3"
		},
		{
			"bufferView":35,
			"componentType":5126,
			"count":4203,
			"type":"VEC3"
		},
		{
			"bufferView":36,
			"componentType":5126,
			"count":4203,
			"type":"VEC2"
		},
		{
			"bufferView":37,
			"componentType":5123,
			"count":20964,
			"type":"SCALAR"
		},
		{
			"bufferView":38,
			"componentType":5126,
			"count":16,
			"max":[
				0.625
			],
			"min":[
				0
			],
			"type":"SCALAR"
		},
		{
			"bufferView":39,
			"componentType":5126,
			"count":16,
			"type":"SCALAR"
		},
		{
			"bufferView":40,
			"componentType":5126,
			"count":16,
			"type":"SCALAR"
		}
	],
	"bufferViews":[
		{
			"buffer":0,
			"byteLength":3216,
			"byteOffset":0,
			"target":34962
		},
		{
			"buffer":0,
			"byteLength":3216,
			"byteOffset":3216,
			"target":34962
		},
		{
			"buffer":0,
			"byteLength":2144,
			"byteOffset":6432,
			"target":34962
		},
		{
			"buffer":0,
			"byteLength":1824,
			"byteOffset":8576,
			"target":34963
		},
		{
			"buffer":0,
			"byteLength":48,
			"byteOffset":10400,
			"target":34962
		},
		{
			"buffer":0,
			"byteLength":48,
			"byteOffset":10448,
			"target":34962
		},
		{
			"buffer":0,
			"byteLength":32,
			"byteOffset":10496,
			"target":34962
		},
		{
			"buffer":0,
			"byteLength":12,
			"byteOffset":10528,
			"target":34963
		},
		{
			"buffer":0,
			"byteLength":1728,
			"byteOffset":10540,
			"target":34962
		},
		{
			"buffer":0,
			"byteLength":1728,
			"byteOffset":12268,
			"target":34962
		},
		{
			"buffer":0,
			"byteLength":1152,
			"byteOffset":13996,
			"target":34962
		},
		{
			"buffer":0,
			"byteLength":792,
			"byteOffset":15148,
			"target":34963
		},
		{
			"buffer":0,
			"byteLength":960,
			"byteOffset":15940,
			"target":34962
		},
		{
			"buffer":0,
			"byteLength":960,
			"byteOffset":16900,
			"target":34962
		},
		{
			"buffer":0,
			"byteLength":640,
			"byteOffset":17860,
			"target":34962
		},
		{
			"buffer":0,
			"byteLength":480,
			"byteOffset":18500,
			"target":34963
		},
		{
			"buffer":0,
			"byteLength":6684,
			"byteOffset":18980,
			"target":34962
		},
		{
			"buffer":0,
			"byteLength":6684,
			"byteOffset":25664,
			"target":34962
		},
		{
			"buffer":0,
			"byteLength":4456,
			"byteOffset":32348,
			"target":34962
		},
		{
			"buffer":0,
			"byteLength":5760,
			"byteOffset":36804,
			"target":34963
		},
		{
			"buffer":0,
			"byteLength":75768,
			"byteOffset":42564,
			"target":34962
		},
		{
			"buffer":0,
			"byteLength":75768,
			"byteOffset":118332,
			"target":34962
		},
		{
			"buffer":0,
			"byteLength":50512,
			"byteOffset":194100,
			"target":34962
		},
		{
			"buffer":0,
			"byteLength":63120,
			"byteOffset":244612,
			"target":34963
		},
		{
			"buffer":0,
			"byteLength":5928,
			"byteOffset":307732,
			"target":34962
		},
		{
			"buffer":0,
			"byteLength":5928,
			"byteOffset":313660,
			"target":34962
		},
		{
			"buffer":0,
			"byteLength":3952,
			"byteOffset":319588,
			"target":34962
		},
		{
			"buffer":0,
			"byteLength":5352,
			"byteOffset":323540,
			"target":34963
		},
		{
			"buffer":0,
			"byteLength":360,
			"byteOffset":328892,
			"target":34962
		},
		{
			"buffer":0,
			"byteLength":360,
			"byteOffset":329252,
			"target":34962
		},
		{
			"buffer":0,
			"byteLength":240,
			"byteOffset":329612,
			"target":34962
		},
		{
			"buffer":0,
			"byteLength":240,
			"byteOffset":329852,
			"target":34963
		},
		{
			"buffer":0,
			"byteLength":360,
			"byteOffset":330092,
			"target":34962
		},
		{
			"buffer":0,
			"byteLength":360,
			"byteOffset":330452,
			"target":34962
		},
		{
			"buffer":0,
			"byteLength":50436,
			"byteOffset":330812,
			"target":34962
		},
		{
			"buffer":0,
			"byteLength":50436,
			"byteOffset":381248,
			"target":34962
		},
		{
			"buffer":0,
			"byteLength":33624,
			"byteOffset":431684,
			"target":34962
		},
		{
			"buffer":0,
			"byteLength":41928,
			"byteOffset":465308,
			"target":34963
		},
		{
			"buffer":0,
			"byteLength":64,
			"byteOffset":507236
		},
		{
			"buffer":0,
			"byteLength":64,
			"byteOffset":507300
		},
		{
			"buffer":0,
			"byteLength":64,
			"byteOffset":507364
		}
	],
	"buffers":[
		{
			"byteLength":507428,
			"uri":"pelotita2.bin"
		}
	]
}
